<?xml version="1.0" encoding="UTF-8"?>
<svg version="1.1" xmlns="http://www.w3.org/2000/svg" width="500" height="500">
<path d="M0 0 C165 0 330 0 500 0 C500 165 500 330 500 500 C335 500 170 500 0 500 C0 335 0 170 0 0 Z " fill="#000000" transform="translate(0,0)"/>
<path d="M0 0 C17.49 0 34.98 0 53 0 C51.44386759 4.66839724 49.71446295 9.02502172 47.65625 13.46875 C47.32765991 14.18494507 46.99906982 14.90114014 46.66052246 15.63903809 C45.60992126 17.92737457 44.55512036 20.21374425 43.5 22.5 C42.82262117 23.97252035 42.14553579 25.44517573 41.46875 26.91796875 C40.788125 28.39910156 40.1075 29.88023437 39.40625 31.40625 C34.57545627 41.92436118 29.78952966 52.46303476 25 63 C82.915 63.495 82.915 63.495 142 64 C139.74985105 70.75044685 139.74985105 70.75044685 138.36767578 73.67529297 C138.06040558 74.32972382 137.75313538 74.98415466 137.43655396 75.65841675 C137.10944427 76.3460611 136.78233459 77.03370544 136.4453125 77.7421875 C136.10249237 78.46938995 135.75967224 79.19659241 135.40646362 79.9458313 C134.68352116 81.47781553 133.95897385 83.00904335 133.23291016 84.53955078 C132.1323854 86.85943175 131.03644821 89.18143299 129.94140625 91.50390625 C129.23464246 93.00012637 128.52761954 94.49622412 127.8203125 95.9921875 C127.49725128 96.67578339 127.17419006 97.35937927 126.84133911 98.06369019 C124.62068583 102.74284492 122.3174181 107.3651638 120 112 C106.8 112.33 93.6 112.66 80 113 C77.89625 117.640625 75.7925 122.28125 73.625 127.0625 C67.42636671 140.71647013 61.1619655 154.33910627 54.86730957 167.94903564 C47.16840054 184.59845571 39.57375867 201.2931794 32 218 C14.51 218 -2.98 218 -21 218 C-19.12629798 212.37889393 -17.45452519 207.52094311 -14.953125 202.28125 C-14.66539719 201.67384979 -14.37766937 201.06644958 -14.08122253 200.44064331 C-13.46348645 199.13737926 -12.8435766 197.83514363 -12.22164917 196.53387451 C-10.52813943 192.98898774 -8.85246708 189.43568002 -7.17578125 185.8828125 C-6.82890762 185.14858063 -6.482034 184.41434875 -6.12464905 183.65786743 C-2.48258453 175.93291 1.04501302 168.15726913 4.5625 160.375 C9.60008003 149.23930553 14.69955268 138.13483796 19.875 127.0625 C20.18035675 126.4090863 20.4857135 125.75567261 20.80032349 125.0824585 C25.7225337 114.5549326 25.7225337 114.5549326 27 112 C14.625 112.495 14.625 112.495 2 113 C-4.27 126.53 -10.54 140.06 -17 154 C-34.49 154 -51.98 154 -70 154 C-68.07350439 148.22051317 -66.31781813 143.23696672 -63.734375 137.84375 C-63.42463242 137.19236557 -63.11488983 136.54098114 -62.79576111 135.86985779 C-62.13113051 134.47284483 -61.46432347 133.07686553 -60.79550171 131.68185425 C-58.97789115 127.88868845 -57.17879155 124.08675701 -55.37890625 120.28515625 C-55.00969559 119.50604385 -54.64048492 118.72693146 -54.26008606 117.92420959 C-50.65378675 110.2988385 -47.15977312 102.62460712 -43.6875 94.9375 C-38.06820532 82.50964192 -32.36937513 70.12053808 -26.625 57.75 C-17.6977372 38.5237276 -8.83998071 19.26662463 0 0 Z " fill="#AD58A1" transform="translate(214,141)"/>
<path d="M0 0 C1.000811 0.00015106 2.00162201 0.00030212 3.03276062 0.00045776 C4.65006828 0.01594162 4.65006828 0.01594162 6.30004883 0.03173828 C7.95838493 0.03598312 7.95838493 0.03598312 9.65022278 0.04031372 C13.18595136 0.05152076 16.72142788 0.07662651 20.25708008 0.10205078 C22.65225872 0.11207989 25.04744132 0.12120586 27.44262695 0.12939453 C33.31836419 0.15146181 39.19395413 0.1849446 45.06958008 0.22705078 C44.48800029 5.54861042 42.68440734 9.71295555 40.41333008 14.48095703 C40.03909409 15.28220001 39.66485809 16.08344299 39.27928162 16.90896606 C38.04929213 19.53896628 36.80933577 22.16414216 35.56958008 24.78955078 C34.7087821 26.62679771 33.84884844 28.46444981 32.98974609 30.30249023 C31.66627634 33.1336928 30.3422495 35.96462041 29.01551819 38.79429626 C24.98833846 47.38396647 21.01433832 55.99747764 17.05932617 64.62057495 C16.05073679 66.81937585 15.04080308 69.01755418 14.03051758 71.21557617 C8.67792498 82.87165756 3.37725949 94.55015608 -1.93041992 106.22705078 C-19.42041992 106.22705078 -36.91041992 106.22705078 -54.93041992 106.22705078 C-53.0567179 100.60594471 -51.38494511 95.74799389 -48.88354492 90.50830078 C-48.4519532 89.59720047 -48.4519532 89.59720047 -48.01164246 88.66769409 C-47.39390637 87.36443004 -46.77399653 86.06219441 -46.15206909 84.76092529 C-44.45855935 81.21603852 -42.782887 77.6627308 -41.10620117 74.10986328 C-40.75932755 73.37563141 -40.41245392 72.64139954 -40.05506897 71.88491821 C-36.73295739 64.83859314 -33.50464582 57.75115852 -30.29541016 50.65286255 C-27.51588418 44.50693846 -24.72259101 38.36723767 -21.93041992 32.22705078 C-21.60736877 31.51611267 -21.28431763 30.80517456 -20.95147705 30.07269287 C-19.01303614 25.80945964 -17.06510019 21.55078811 -15.10403442 17.2979126 C-14.49327974 15.96985161 -13.88553954 14.64039973 -13.28097534 13.30950928 C-12.44821149 11.47756283 -11.60366482 9.65098625 -10.75854492 7.82470703 C-10.28320312 6.78838135 -9.80786133 5.75205566 -9.31811523 4.68432617 C-6.94093262 0.47490622 -4.52907897 -0.02281652 0 0 Z " fill="#C55CA2" transform="translate(247.930419921875,252.77294921875)"/>
<path d="M0 0 C17.49 0 34.98 0 53 0 C51.44386759 4.66839724 49.71446295 9.02502172 47.65625 13.46875 C47.32765991 14.18494507 46.99906982 14.90114014 46.66052246 15.63903809 C45.60992126 17.92737457 44.55512036 20.21374425 43.5 22.5 C42.82262117 23.97252035 42.14553579 25.44517573 41.46875 26.91796875 C40.788125 28.39910156 40.1075 29.88023437 39.40625 31.40625 C34.57545627 41.92436118 29.78952966 52.46303476 25 63 C7.51 63 -9.98 63 -28 63 C-26.08433853 57.25301558 -24.3344344 52.26648529 -21.77734375 46.89453125 C-21.47236465 46.24916916 -21.16738556 45.60380707 -20.85316467 44.93888855 C-19.88606957 42.894444 -18.91222834 40.85331462 -17.9375 38.8125 C-11.81535036 25.93641143 -5.9013188 12.98290135 0 0 Z " fill="#7F51A0" transform="translate(214,141)"/>
<path d="M0 0 C0.66 0.33 1.32 0.66 2 1 C3.57206643 1.11840113 5.14883269 1.17703033 6.72509766 1.20532227 C7.70596344 1.22526749 8.68682922 1.24521271 9.69741821 1.26576233 C10.75891083 1.28247482 11.82040344 1.29918732 12.9140625 1.31640625 C14.54122696 1.3475779 14.54122696 1.3475779 16.20126343 1.37937927 C19.67577621 1.44490634 23.15036624 1.50377447 26.625 1.5625 C28.97657058 1.60568221 31.32813326 1.6492964 33.6796875 1.69335938 C39.4530427 1.80059093 45.2264752 1.90235144 51 2 C50.43569175 5.21460345 49.69872969 8.00496045 48.32592773 10.96411133 C47.9809021 11.71470825 47.63587646 12.46530518 47.28039551 13.23864746 C46.91845093 14.01196411 46.55650635 14.78528076 46.18359375 15.58203125 C45.85041138 16.30434937 45.517229 17.02666748 45.1739502 17.77087402 C43.93434031 20.45413726 42.68536861 23.13306756 41.4375 25.8125 C38.653125 31.814375 35.86875 37.81625 33 44 C15.51 44 -1.98 44 -20 44 C-17.9872678 37.9618034 -15.95765007 32.40700159 -13.2421875 26.71875 C-12.8936673 25.97919067 -12.54514709 25.23963135 -12.18606567 24.47766113 C-11.45733153 22.93384403 -10.72617934 21.39116613 -9.99267578 19.84960938 C-8.86573048 17.48051335 -7.74674948 15.10777741 -6.62890625 12.734375 C-5.91712288 11.22895088 -5.20489951 9.7237347 -4.4921875 8.21875 C-3.98907547 7.15327942 -3.98907547 7.15327942 -3.47579956 6.06628418 C-1.11650848 1.11650848 -1.11650848 1.11650848 0 0 Z " fill="#DB6CA8" transform="translate(164,251)"/>
</svg>
